# xmcd
#
# Track frame offsets:
#	150
#	24286
#	45423
#	62848
#	82641
#	102882
#	126307
#	145787
#	169587
#	192836
#	210980
#	234970
#	254751
#	275900
#
# Disc length: 3908 seconds
#
# Revision: 1
# Processed by: cddbd v1.5.2PL0 Copyright (c) Steve Scherf et al.
# Submitted via: EZCDAudioConverter 8.0.2.1
#
DISCID=b80f420e
DTITLE=Nguyên Vũ - Dòng Sông Tình Yêu
DYEAR=2002
DGENRE=Pop
TTITLE0=Nguyên Vũ - Dòng Sông Tình Yêu
TTITLE1=Nguyên Vũ - Cuộc tình mùa thu
TTITLE2=Nguyên Vũ - Những điều lạ
TTITLE3=Nguyên Vũ - Tình quê
TTITLE4=Nguyên Vũ - Phút ban đầu
TTITLE5=Nguyên Vũ - Khi đã yêu
TTITLE6=Nguyên Vũ - Yêu ta yêu
TTITLE7=Nguyên Vũ - Cuộc tình chóng qua
TTITLE8=Nguyên Vũ - Tình xa
TTITLE9=Nguyên Vũ - Chỉ còn tách cà phê
TTITLE10=Soundtrack - Dòng Sông Tình Yêu
TTITLE11=Soundtrack - Tình quê
TTITLE12=Soundtrack - Cuộc tình mùa thu
TTITLE13=Soundtrack - Những điều lạ
EXTD=
EXTT0=
EXTT1=
EXTT2=
EXTT3=
EXTT4=
EXTT5=
EXTT6=
EXTT7=
EXTT8=
EXTT9=
EXTT10=
EXTT11=
EXTT12=
EXTT13=
PLAYORDER=
